<?xml version="1.0" encoding="UTF-8" standalone="no"?>
<!DOCTYPE svg PUBLIC "-//W3C//DTD SVG 1.1//EN" "http://www.w3.org/Graphics/SVG/1.1/DTD/svg11.dtd">
<svg width="100%" height="100%" viewBox="0 0 828 559" version="1.1" xmlns="http://www.w3.org/2000/svg" xmlns:xlink="http://www.w3.org/1999/xlink" xml:space="preserve" xmlns:serif="http://www.serif.com/" style="fill-rule:evenodd;clip-rule:evenodd;stroke-linejoin:round;stroke-miterlimit:2;">
    <g transform="matrix(5.55556,0,0,5.55556,-636.097,-795.142)">
        <g opacity="0.48">
            <g transform="matrix(1,0,0,1,117.283,156.525)">
                <path d="M0,73.435C-2.935,73.24 -2.834,72.545 0.227,71.885C0.227,71.885 27.283,63.16 30.827,65.286C34.37,67.412 29.389,54.958 29.389,54.958C28.226,52.051 28.825,47.678 30.727,45.192L36.496,37.648L40.629,32.763C42.652,30.372 46.818,28.198 49.936,27.906L66.968,26.309L86.646,26.309C88.303,26.309 90.525,25.294 91.61,24.041C91.61,24.041 98.15,17.805 98.858,15.679C99.567,13.553 98.15,5.049 98.15,2.923C98.15,0.797 99.236,-8.977 99.236,-8.977C99.419,-10.624 100.894,-12.169 102.53,-12.426L108.093,-13.305C110.82,-13.736 113.983,-12.657 115.157,-10.896C115.157,-10.896 115.157,-7.707 117.283,-7.707C119.409,-7.707 125.079,-8.416 125.079,-8.416L137.835,-13.377L136.967,-10.338C136.663,-9.276 137.286,-8.632 138.358,-8.901L142.981,-10.056C144.053,-10.324 144.188,-10.028 143.283,-9.394L138.654,-6.154C138.201,-5.837 138.281,-5.609 138.833,-5.643L143.515,-5.936C146.64,-6.131 146.977,-5.018 144.267,-3.449L135.709,1.506C135.709,1.506 130.748,7.175 128.622,7.175C126.496,7.175 117.862,6.599 117.862,6.599C116.76,6.526 116.112,7.328 116.416,8.389L117.877,13.503C118.332,15.096 118.534,17.72 118.329,19.365L117.532,25.742C117.395,26.837 116.746,28.443 116.083,29.327L113.031,33.396L108.071,38.356L104.528,41.191C102.571,42.756 98.75,44.157 95.993,44.319L88.937,44.734L71.22,44.734L60.461,45.331C59.359,45.393 57.791,46.033 56.959,46.76L52.795,50.404L48.493,55.32C48.129,55.736 47.89,56.517 47.959,57.065L48.543,61.742L50.694,67.658C51.072,68.696 51.452,70.43 51.544,71.531L52.004,77.044C52.049,77.595 51.787,78.374 51.418,78.785L48.385,82.155C46.907,83.796 43.948,85.457 41.777,85.865L35.353,87.07C34.81,87.171 33.998,87.005 33.538,86.7L30.026,84.358C27.729,82.827 23.676,82.045 20.973,82.615L12.402,84.419L11.17,81.956C10.676,80.968 9.398,80.343 8.314,80.559L4.17,81.388C3.628,81.497 3.556,81.328 4.008,81.011L6.732,79.104C8.689,77.735 8.048,76.847 5.3,77.122L-1.908,77.842C-3.007,77.953 -3.085,77.666 -2.082,77.204L1.683,75.465C3.689,74.539 3.528,73.67 1.324,73.523L0,73.435Z" style="fill:rgb(0,174,239);fill-rule:nonzero;"/>
            </g>
        </g>
    </g>
</svg>
